<mxfile host="app.diagrams.net" agent="Mozilla/5.0 (Windows NT 10.0; Win64; x64) AppleWebKit/537.36 (KHTML, like Gecko) Chrome/140.0.0.0 Safari/537.36" version="28.2.5">
  <diagram name="PÃ¡gina-1" id="0cXTqb1YZR4V0VBAhOrc">
    <mxGraphModel grid="1" page="1" gridSize="10" guides="1" tooltips="1" connect="1" arrows="1" fold="1" pageScale="1" pageWidth="827" pageHeight="1169" math="0" shadow="0">
      <root>
        <mxCell id="0" />
        <mxCell id="1" parent="0" />
        <UserObject label="" tags="Fondo" id="aQ8phS6_Cu3jGlPXwjjR-1">
          <mxCell style="vsdxID=18;fillColor=none;gradientColor=none;spacingTop=3;spacingBottom=3;points=[[0,0.5,0],[1,0.5,0],[0.5,1,0],[0.5,0,0]];labelBackgroundColor=none;rounded=0;strokeColor=none;html=1;whiteSpace=wrap;" vertex="1" parent="1">
            <mxGeometry x="60" y="130" width="260" height="170" as="geometry" />
          </mxCell>
        </UserObject>
        <mxCell id="aQ8phS6_Cu3jGlPXwjjR-2" value="&lt;div&gt;- idTicket&lt;/div&gt;&lt;div&gt;- descripcion&lt;/div&gt;&lt;div&gt;- fechaCreacion&lt;/div&gt;&lt;div&gt;- estado&lt;/div&gt;&lt;div style=&quot;&quot;&gt;- prioridad&lt;/div&gt;" style="vsdxID=19;fillColor=#f2f2f2;gradientColor=none;shape=stencil(3VLRDoIwDPyaPULKhgOeFf9jkQGLk5EyBf/ekYaIJkrio0+79u66Jj0m9kOres04DB7dWY+m8i0TB8a56VqNxgfERMnEvnaoG3TXrqK6V7NyRhd3mydM5IPZweFOVQJUH0lqTbeSLuRPYi5jKT7LN8QKT4HFZXaeZkUOEB4BuzROJLlxsed5lkEhAaRIUohToje+gilSkxkidF5547oXtVXY6CisEdVWNS/UMGrdr9rJXyz+7Txvhw/gma7aWEvhXPPvaQwtSrIoHw==);points=[[0,0.5,0],[1,0.5,0],[0.5,1,0],[0.5,0,0]];labelBackgroundColor=none;rounded=0;html=1;whiteSpace=wrap;align=left;" vertex="1" parent="aQ8phS6_Cu3jGlPXwjjR-1">
          <mxGeometry width="260" height="166" as="geometry" />
        </mxCell>
        <mxCell id="aQ8phS6_Cu3jGlPXwjjR-3" style="vsdxID=20;fillColor=#ffffff;gradientColor=none;shape=stencil(zZJNDsIgEIVPw5IE4Qi1LnuHiYWWiNAMaNvbC5lGazVduHI3P9/Mm0weU1XsYdBMipgwXPRo29QzdWRSWt9rtClHTNVMVSag7jDcfEv5AIUs0TXcy4aJ5kSZkGKm7CAoPxEKeM49XNAGGoJx3hR2d4mJw2Qjx5Ag2eDfWAfYaZ51uHHQLYPUiqPWw0f57y9z1q/e+5T6/uB9eAf9EdzI5+DlC2OdI1ut+1sf5RJ5UNUP);points=[[0,0.5,0],[1,0.5,0],[0.5,1,0],[0.5,0,0]];labelBackgroundColor=none;rounded=0;html=1;whiteSpace=wrap;" vertex="1" parent="aQ8phS6_Cu3jGlPXwjjR-1">
          <mxGeometry width="260" height="44" as="geometry" />
        </mxCell>
        <mxCell id="aQ8phS6_Cu3jGlPXwjjR-4" value="&lt;div style=&quot;font-size: 1px&quot;&gt;&lt;font style=&quot;font-size: 16.93px; font-family: Calibri; color: rgb(0, 0, 0); direction: ltr; letter-spacing: 0px; line-height: 120%; opacity: 1;&quot;&gt;Ticket&lt;br&gt;&lt;/font&gt;&lt;/div&gt;" style="text;vsdxID=18;fillColor=none;gradientColor=none;spacingTop=3;spacingBottom=3;points=[[0,0.5,0],[1,0.5,0],[0.5,1,0],[0.5,0,0]];labelBackgroundColor=none;rounded=0;strokeColor=none;html=1;whiteSpace=wrap;verticalAlign=middle;align=left;overflow=width;;html=1;" vertex="1" parent="aQ8phS6_Cu3jGlPXwjjR-1">
          <mxGeometry y="-0.39" width="260" height="44.31" as="geometry" />
        </mxCell>
        <mxCell id="aQ8phS6_Cu3jGlPXwjjR-34" value="" style="endArrow=none;dashed=1;html=1;dashPattern=1 3;strokeWidth=2;rounded=0;exitX=-0.004;exitY=0.765;exitDx=0;exitDy=0;exitPerimeter=0;entryX=0.992;entryY=0.759;entryDx=0;entryDy=0;entryPerimeter=0;" edge="1" parent="aQ8phS6_Cu3jGlPXwjjR-1">
          <mxGeometry width="50" height="50" relative="1" as="geometry">
            <mxPoint x="5.684341886080802e-14" y="121.1399999999999" as="sourcePoint" />
            <mxPoint x="258.96000000000004" y="120.00000000000003" as="targetPoint" />
          </mxGeometry>
        </mxCell>
        <mxCell id="aQ8phS6_Cu3jGlPXwjjR-35" value="&lt;div&gt;+ actualizarEstado()&lt;/div&gt;" style="text;html=1;align=left;verticalAlign=middle;whiteSpace=wrap;rounded=0;" vertex="1" parent="aQ8phS6_Cu3jGlPXwjjR-1">
          <mxGeometry y="120" width="120" height="50" as="geometry" />
        </mxCell>
        <UserObject label="" tags="Fondo" id="aQ8phS6_Cu3jGlPXwjjR-5">
          <mxCell style="vsdxID=18;fillColor=none;gradientColor=none;spacingTop=3;spacingBottom=3;points=[[0,0.5,0],[1,0.5,0],[0.5,1,0],[0.5,0,0]];labelBackgroundColor=none;rounded=0;strokeColor=none;html=1;whiteSpace=wrap;" vertex="1" parent="1">
            <mxGeometry x="390" y="130" width="260" height="166" as="geometry" />
          </mxCell>
        </UserObject>
        <mxCell id="aQ8phS6_Cu3jGlPXwjjR-6" value="&lt;div&gt;- idChatbot&lt;/div&gt;&lt;div&gt;- intenciones[]&lt;/div&gt;&lt;div&gt;- respuestas[]&lt;/div&gt;" style="vsdxID=19;fillColor=#f2f2f2;gradientColor=none;shape=stencil(3VLRDoIwDPyaPULKhgOeFf9jkQGLk5EyBf/ekYaIJkrio0+79u66Jj0m9kOres04DB7dWY+m8i0TB8a56VqNxgfERMnEvnaoG3TXrqK6V7NyRhd3mydM5IPZweFOVQJUH0lqTbeSLuRPYi5jKT7LN8QKT4HFZXaeZkUOEB4BuzROJLlxsed5lkEhAaRIUohToje+gilSkxkidF5547oXtVXY6CisEdVWNS/UMGrdr9rJXyz+7Txvhw/gma7aWEvhXPPvaQwtSrIoHw==);points=[[0,0.5,0],[1,0.5,0],[0.5,1,0],[0.5,0,0]];labelBackgroundColor=none;rounded=0;html=1;whiteSpace=wrap;align=left;" vertex="1" parent="aQ8phS6_Cu3jGlPXwjjR-5">
          <mxGeometry width="260" height="166" as="geometry" />
        </mxCell>
        <mxCell id="aQ8phS6_Cu3jGlPXwjjR-7" style="vsdxID=20;fillColor=#ffffff;gradientColor=none;shape=stencil(zZJNDsIgEIVPw5IE4Qi1LnuHiYWWiNAMaNvbC5lGazVduHI3P9/Mm0weU1XsYdBMipgwXPRo29QzdWRSWt9rtClHTNVMVSag7jDcfEv5AIUs0TXcy4aJ5kSZkGKm7CAoPxEKeM49XNAGGoJx3hR2d4mJw2Qjx5Ag2eDfWAfYaZ51uHHQLYPUiqPWw0f57y9z1q/e+5T6/uB9eAf9EdzI5+DlC2OdI1ut+1sf5RJ5UNUP);points=[[0,0.5,0],[1,0.5,0],[0.5,1,0],[0.5,0,0]];labelBackgroundColor=none;rounded=0;html=1;whiteSpace=wrap;" vertex="1" parent="aQ8phS6_Cu3jGlPXwjjR-5">
          <mxGeometry width="260" height="44" as="geometry" />
        </mxCell>
        <mxCell id="aQ8phS6_Cu3jGlPXwjjR-8" value="&lt;div style=&quot;font-size: 1px&quot;&gt;&lt;font style=&quot;font-size: 16.93px; font-family: Calibri; color: rgb(0, 0, 0); direction: ltr; letter-spacing: 0px; line-height: 120%; opacity: 1;&quot;&gt;Chatbot&lt;br&gt;&lt;/font&gt;&lt;/div&gt;" style="text;vsdxID=18;fillColor=none;gradientColor=none;spacingTop=3;spacingBottom=3;points=[[0,0.5,0],[1,0.5,0],[0.5,1,0],[0.5,0,0]];labelBackgroundColor=none;rounded=0;strokeColor=none;html=1;whiteSpace=wrap;verticalAlign=middle;align=left;overflow=width;;html=1;" vertex="1" parent="aQ8phS6_Cu3jGlPXwjjR-5">
          <mxGeometry y="-0.39" width="260" height="44.31" as="geometry" />
        </mxCell>
        <mxCell id="aQ8phS6_Cu3jGlPXwjjR-37" value="" style="endArrow=none;dashed=1;html=1;dashPattern=1 3;strokeWidth=2;rounded=0;exitX=-0.004;exitY=0.765;exitDx=0;exitDy=0;exitPerimeter=0;entryX=0.992;entryY=0.759;entryDx=0;entryDy=0;entryPerimeter=0;" edge="1" parent="aQ8phS6_Cu3jGlPXwjjR-5">
          <mxGeometry width="50" height="50" relative="1" as="geometry">
            <mxPoint x="1.0400000000000773" y="111.1399999999999" as="sourcePoint" />
            <mxPoint x="260" y="110.00000000000003" as="targetPoint" />
          </mxGeometry>
        </mxCell>
        <mxCell id="aQ8phS6_Cu3jGlPXwjjR-51" value="&lt;div&gt;+ responderConsulta()&lt;/div&gt;&lt;div&gt;+ crearTicket()&lt;/div&gt;" style="text;html=1;align=left;verticalAlign=middle;whiteSpace=wrap;rounded=0;" vertex="1" parent="aQ8phS6_Cu3jGlPXwjjR-5">
          <mxGeometry y="110" width="150" height="50" as="geometry" />
        </mxCell>
        <UserObject label="" tags="Fondo" id="aQ8phS6_Cu3jGlPXwjjR-9">
          <mxCell style="vsdxID=18;fillColor=none;gradientColor=none;spacingTop=3;spacingBottom=3;points=[[0,0.5,0],[1,0.5,0],[0.5,1,0],[0.5,0,0]];labelBackgroundColor=none;rounded=0;strokeColor=none;html=1;whiteSpace=wrap;" vertex="1" parent="1">
            <mxGeometry x="-260" y="130" width="260" height="190" as="geometry" />
          </mxCell>
        </UserObject>
        <mxCell id="aQ8phS6_Cu3jGlPXwjjR-10" value="- IdUsuario&lt;div&gt;- Nombre&lt;/div&gt;&lt;div&gt;- Email&lt;/div&gt;&lt;div&gt;- TipoUsuario&lt;/div&gt;" style="vsdxID=19;fillColor=#f2f2f2;gradientColor=none;shape=stencil(3VLRDoIwDPyaPULKhgOeFf9jkQGLk5EyBf/ekYaIJkrio0+79u66Jj0m9kOres04DB7dWY+m8i0TB8a56VqNxgfERMnEvnaoG3TXrqK6V7NyRhd3mydM5IPZweFOVQJUH0lqTbeSLuRPYi5jKT7LN8QKT4HFZXaeZkUOEB4BuzROJLlxsed5lkEhAaRIUohToje+gilSkxkidF5547oXtVXY6CisEdVWNS/UMGrdr9rJXyz+7Txvhw/gma7aWEvhXPPvaQwtSrIoHw==);points=[[0,0.5,0],[1,0.5,0],[0.5,1,0],[0.5,0,0]];labelBackgroundColor=none;rounded=0;html=1;whiteSpace=wrap;align=left;" vertex="1" parent="aQ8phS6_Cu3jGlPXwjjR-9">
          <mxGeometry width="260" height="190" as="geometry" />
        </mxCell>
        <mxCell id="aQ8phS6_Cu3jGlPXwjjR-11" style="vsdxID=20;fillColor=#ffffff;gradientColor=none;shape=stencil(zZJNDsIgEIVPw5IE4Qi1LnuHiYWWiNAMaNvbC5lGazVduHI3P9/Mm0weU1XsYdBMipgwXPRo29QzdWRSWt9rtClHTNVMVSag7jDcfEv5AIUs0TXcy4aJ5kSZkGKm7CAoPxEKeM49XNAGGoJx3hR2d4mJw2Qjx5Ag2eDfWAfYaZ51uHHQLYPUiqPWw0f57y9z1q/e+5T6/uB9eAf9EdzI5+DlC2OdI1ut+1sf5RJ5UNUP);points=[[0,0.5,0],[1,0.5,0],[0.5,1,0],[0.5,0,0]];labelBackgroundColor=none;rounded=0;html=1;whiteSpace=wrap;" vertex="1" parent="aQ8phS6_Cu3jGlPXwjjR-9">
          <mxGeometry width="260" height="50.361445783132524" as="geometry" />
        </mxCell>
        <mxCell id="aQ8phS6_Cu3jGlPXwjjR-12" value="&lt;div style=&quot;font-size: 1px&quot;&gt;&lt;font style=&quot;font-size:16.93px;font-family:Calibri;color:#000000;direction:ltr;letter-spacing:0px;line-height:120%;opacity:1&quot;&gt;Usuario&lt;br/&gt;&lt;/font&gt;&lt;/div&gt;" style="text;vsdxID=18;fillColor=none;gradientColor=none;spacingTop=3;spacingBottom=3;points=[[0,0.5,0],[1,0.5,0],[0.5,1,0],[0.5,0,0]];labelBackgroundColor=none;rounded=0;strokeColor=none;html=1;whiteSpace=wrap;verticalAlign=middle;align=left;overflow=width;;html=1;" vertex="1" parent="aQ8phS6_Cu3jGlPXwjjR-9">
          <mxGeometry y="-0.4463855421686747" width="260" height="50.71626506024097" as="geometry" />
        </mxCell>
        <mxCell id="aQ8phS6_Cu3jGlPXwjjR-26" value="" style="endArrow=none;dashed=1;html=1;dashPattern=1 3;strokeWidth=2;rounded=0;exitX=-0.004;exitY=0.765;exitDx=0;exitDy=0;exitPerimeter=0;entryX=0.992;entryY=0.759;entryDx=0;entryDy=0;entryPerimeter=0;" edge="1" parent="aQ8phS6_Cu3jGlPXwjjR-9">
          <mxGeometry width="50" height="50" relative="1" as="geometry">
            <mxPoint x="-1.0399999999999636" y="131.1399999999999" as="sourcePoint" />
            <mxPoint x="257.9200000000001" y="130.00000000000003" as="targetPoint" />
          </mxGeometry>
        </mxCell>
        <mxCell id="aQ8phS6_Cu3jGlPXwjjR-31" value="+CrearTicket()&lt;div&gt;+ConsultarEstado()&lt;/div&gt;" style="text;html=1;align=left;verticalAlign=middle;whiteSpace=wrap;rounded=0;" vertex="1" parent="aQ8phS6_Cu3jGlPXwjjR-9">
          <mxGeometry y="130" width="120" height="50" as="geometry" />
        </mxCell>
        <UserObject label="" tags="Fondo" id="aQ8phS6_Cu3jGlPXwjjR-18">
          <mxCell style="vsdxID=18;fillColor=none;gradientColor=none;spacingTop=3;spacingBottom=3;points=[[0,0.5,0],[1,0.5,0],[0.5,1,0],[0.5,0,0]];labelBackgroundColor=none;rounded=0;strokeColor=none;html=1;whiteSpace=wrap;" vertex="1" parent="1">
            <mxGeometry x="440" y="440" width="260" height="166" as="geometry" />
          </mxCell>
        </UserObject>
        <mxCell id="aQ8phS6_Cu3jGlPXwjjR-19" value="&lt;div&gt;- idReporte&lt;/div&gt;&lt;div&gt;- fecha&lt;/div&gt;&lt;div&gt;- metricas[]&lt;/div&gt;" style="vsdxID=19;fillColor=#f2f2f2;gradientColor=none;shape=stencil(3VLRDoIwDPyaPULKhgOeFf9jkQGLk5EyBf/ekYaIJkrio0+79u66Jj0m9kOres04DB7dWY+m8i0TB8a56VqNxgfERMnEvnaoG3TXrqK6V7NyRhd3mydM5IPZweFOVQJUH0lqTbeSLuRPYi5jKT7LN8QKT4HFZXaeZkUOEB4BuzROJLlxsed5lkEhAaRIUohToje+gilSkxkidF5547oXtVXY6CisEdVWNS/UMGrdr9rJXyz+7Txvhw/gma7aWEvhXPPvaQwtSrIoHw==);points=[[0,0.5,0],[1,0.5,0],[0.5,1,0],[0.5,0,0]];labelBackgroundColor=none;rounded=0;html=1;whiteSpace=wrap;align=left;" vertex="1" parent="aQ8phS6_Cu3jGlPXwjjR-18">
          <mxGeometry width="260" height="166" as="geometry" />
        </mxCell>
        <mxCell id="aQ8phS6_Cu3jGlPXwjjR-20" style="vsdxID=20;fillColor=#ffffff;gradientColor=none;shape=stencil(zZJNDsIgEIVPw5IE4Qi1LnuHiYWWiNAMaNvbC5lGazVduHI3P9/Mm0weU1XsYdBMipgwXPRo29QzdWRSWt9rtClHTNVMVSag7jDcfEv5AIUs0TXcy4aJ5kSZkGKm7CAoPxEKeM49XNAGGoJx3hR2d4mJw2Qjx5Ag2eDfWAfYaZ51uHHQLYPUiqPWw0f57y9z1q/e+5T6/uB9eAf9EdzI5+DlC2OdI1ut+1sf5RJ5UNUP);points=[[0,0.5,0],[1,0.5,0],[0.5,1,0],[0.5,0,0]];labelBackgroundColor=none;rounded=0;html=1;whiteSpace=wrap;" vertex="1" parent="aQ8phS6_Cu3jGlPXwjjR-18">
          <mxGeometry width="260" height="44" as="geometry" />
        </mxCell>
        <mxCell id="aQ8phS6_Cu3jGlPXwjjR-21" value="&lt;div style=&quot;font-size: 1px&quot;&gt;&lt;font style=&quot;font-size: 16.93px; font-family: Calibri; color: rgb(0, 0, 0); direction: ltr; letter-spacing: 0px; line-height: 120%; opacity: 1;&quot;&gt;Reporte&lt;br&gt;&lt;/font&gt;&lt;/div&gt;" style="text;vsdxID=18;fillColor=none;gradientColor=none;spacingTop=3;spacingBottom=3;points=[[0,0.5,0],[1,0.5,0],[0.5,1,0],[0.5,0,0]];labelBackgroundColor=none;rounded=0;strokeColor=none;html=1;whiteSpace=wrap;verticalAlign=middle;align=left;overflow=width;;html=1;" vertex="1" parent="aQ8phS6_Cu3jGlPXwjjR-18">
          <mxGeometry y="-0.39" width="260" height="44.31" as="geometry" />
        </mxCell>
        <mxCell id="aQ8phS6_Cu3jGlPXwjjR-61" value="" style="endArrow=none;dashed=1;html=1;dashPattern=1 3;strokeWidth=2;rounded=0;exitX=-0.004;exitY=0.765;exitDx=0;exitDy=0;exitPerimeter=0;entryX=0.992;entryY=0.759;entryDx=0;entryDy=0;entryPerimeter=0;" edge="1" parent="aQ8phS6_Cu3jGlPXwjjR-18">
          <mxGeometry width="50" height="50" relative="1" as="geometry">
            <mxPoint x="1.1368683772161603e-13" y="122.13999999999987" as="sourcePoint" />
            <mxPoint x="258.96000000000004" y="121" as="targetPoint" />
          </mxGeometry>
        </mxCell>
        <mxCell id="aQ8phS6_Cu3jGlPXwjjR-62" value="+ generarReporte()" style="text;html=1;align=center;verticalAlign=middle;whiteSpace=wrap;rounded=0;" vertex="1" parent="aQ8phS6_Cu3jGlPXwjjR-18">
          <mxGeometry x="-10" y="121" width="130" height="40" as="geometry" />
        </mxCell>
        <UserObject label="" tags="Fondo" id="aQ8phS6_Cu3jGlPXwjjR-22">
          <mxCell style="vsdxID=18;fillColor=none;gradientColor=none;spacingTop=3;spacingBottom=3;points=[[0,0.5,0],[1,0.5,0],[0.5,1,0],[0.5,0,0]];labelBackgroundColor=none;rounded=0;strokeColor=none;html=1;whiteSpace=wrap;" vertex="1" parent="1">
            <mxGeometry x="-20" y="429" width="260" height="166" as="geometry" />
          </mxCell>
        </UserObject>
        <mxCell id="aQ8phS6_Cu3jGlPXwjjR-23" value="&lt;div&gt;- IdSoporte&lt;/div&gt;&lt;div&gt;- Nombre&lt;/div&gt;&lt;div&gt;- Especialidad&lt;/div&gt;" style="vsdxID=19;fillColor=#f2f2f2;gradientColor=none;shape=stencil(3VLRDoIwDPyaPULKhgOeFf9jkQGLk5EyBf/ekYaIJkrio0+79u66Jj0m9kOres04DB7dWY+m8i0TB8a56VqNxgfERMnEvnaoG3TXrqK6V7NyRhd3mydM5IPZweFOVQJUH0lqTbeSLuRPYi5jKT7LN8QKT4HFZXaeZkUOEB4BuzROJLlxsed5lkEhAaRIUohToje+gilSkxkidF5547oXtVXY6CisEdVWNS/UMGrdr9rJXyz+7Txvhw/gma7aWEvhXPPvaQwtSrIoHw==);points=[[0,0.5,0],[1,0.5,0],[0.5,1,0],[0.5,0,0]];labelBackgroundColor=none;rounded=0;html=1;whiteSpace=wrap;align=left;" vertex="1" parent="aQ8phS6_Cu3jGlPXwjjR-22">
          <mxGeometry width="260" height="166" as="geometry" />
        </mxCell>
        <mxCell id="aQ8phS6_Cu3jGlPXwjjR-24" style="vsdxID=20;fillColor=#ffffff;gradientColor=none;shape=stencil(zZJNDsIgEIVPw5IE4Qi1LnuHiYWWiNAMaNvbC5lGazVduHI3P9/Mm0weU1XsYdBMipgwXPRo29QzdWRSWt9rtClHTNVMVSag7jDcfEv5AIUs0TXcy4aJ5kSZkGKm7CAoPxEKeM49XNAGGoJx3hR2d4mJw2Qjx5Ag2eDfWAfYaZ51uHHQLYPUiqPWw0f57y9z1q/e+5T6/uB9eAf9EdzI5+DlC2OdI1ut+1sf5RJ5UNUP);points=[[0,0.5,0],[1,0.5,0],[0.5,1,0],[0.5,0,0]];labelBackgroundColor=none;rounded=0;html=1;whiteSpace=wrap;" vertex="1" parent="aQ8phS6_Cu3jGlPXwjjR-22">
          <mxGeometry width="260" height="44" as="geometry" />
        </mxCell>
        <mxCell id="aQ8phS6_Cu3jGlPXwjjR-25" value="&lt;div style=&quot;font-size: 1px&quot;&gt;&lt;font style=&quot;font-size: 16.93px; font-family: Calibri; color: rgb(0, 0, 0); direction: ltr; letter-spacing: 0px; line-height: 120%; opacity: 1;&quot;&gt;EquipoSoporte&lt;br&gt;&lt;/font&gt;&lt;/div&gt;" style="text;vsdxID=18;fillColor=none;gradientColor=none;spacingTop=3;spacingBottom=3;points=[[0,0.5,0],[1,0.5,0],[0.5,1,0],[0.5,0,0]];labelBackgroundColor=none;rounded=0;strokeColor=none;html=1;whiteSpace=wrap;verticalAlign=middle;align=left;overflow=width;;html=1;" vertex="1" parent="aQ8phS6_Cu3jGlPXwjjR-22">
          <mxGeometry y="-0.39" width="260" height="44.31" as="geometry" />
        </mxCell>
        <mxCell id="aQ8phS6_Cu3jGlPXwjjR-58" value="" style="endArrow=none;dashed=1;html=1;dashPattern=1 3;strokeWidth=2;rounded=0;exitX=-0.004;exitY=0.765;exitDx=0;exitDy=0;exitPerimeter=0;entryX=0.992;entryY=0.759;entryDx=0;entryDy=0;entryPerimeter=0;" edge="1" parent="aQ8phS6_Cu3jGlPXwjjR-22">
          <mxGeometry width="50" height="50" relative="1" as="geometry">
            <mxPoint x="1.1368683772161603e-13" y="122.13999999999987" as="sourcePoint" />
            <mxPoint x="258.96000000000004" y="121" as="targetPoint" />
          </mxGeometry>
        </mxCell>
        <mxCell id="aQ8phS6_Cu3jGlPXwjjR-60" value="+ atenderTicket()" style="text;html=1;align=center;verticalAlign=middle;whiteSpace=wrap;rounded=0;" vertex="1" parent="aQ8phS6_Cu3jGlPXwjjR-22">
          <mxGeometry x="-10" y="126" width="120" height="40" as="geometry" />
        </mxCell>
        <UserObject label="" tags="Fondo" id="aQ8phS6_Cu3jGlPXwjjR-52">
          <mxCell style="vsdxID=18;fillColor=none;gradientColor=none;spacingTop=3;spacingBottom=3;points=[[0,0.5,0],[1,0.5,0],[0.5,1,0],[0.5,0,0]];labelBackgroundColor=none;rounded=0;strokeColor=none;html=1;whiteSpace=wrap;" vertex="1" parent="1">
            <mxGeometry x="790" y="134" width="260" height="166" as="geometry" />
          </mxCell>
        </UserObject>
        <mxCell id="aQ8phS6_Cu3jGlPXwjjR-53" value="&lt;div&gt;- IdPreguntas&lt;/div&gt;&lt;div&gt;- pregunta&lt;/div&gt;&lt;div&gt;- respuesta&lt;/div&gt;" style="vsdxID=19;fillColor=#f2f2f2;gradientColor=none;shape=stencil(3VLRDoIwDPyaPULKhgOeFf9jkQGLk5EyBf/ekYaIJkrio0+79u66Jj0m9kOres04DB7dWY+m8i0TB8a56VqNxgfERMnEvnaoG3TXrqK6V7NyRhd3mydM5IPZweFOVQJUH0lqTbeSLuRPYi5jKT7LN8QKT4HFZXaeZkUOEB4BuzROJLlxsed5lkEhAaRIUohToje+gilSkxkidF5547oXtVXY6CisEdVWNS/UMGrdr9rJXyz+7Txvhw/gma7aWEvhXPPvaQwtSrIoHw==);points=[[0,0.5,0],[1,0.5,0],[0.5,1,0],[0.5,0,0]];labelBackgroundColor=none;rounded=0;html=1;whiteSpace=wrap;align=left;" vertex="1" parent="aQ8phS6_Cu3jGlPXwjjR-52">
          <mxGeometry width="260" height="166" as="geometry" />
        </mxCell>
        <mxCell id="aQ8phS6_Cu3jGlPXwjjR-54" style="vsdxID=20;fillColor=#ffffff;gradientColor=none;shape=stencil(zZJNDsIgEIVPw5IE4Qi1LnuHiYWWiNAMaNvbC5lGazVduHI3P9/Mm0weU1XsYdBMipgwXPRo29QzdWRSWt9rtClHTNVMVSag7jDcfEv5AIUs0TXcy4aJ5kSZkGKm7CAoPxEKeM49XNAGGoJx3hR2d4mJw2Qjx5Ag2eDfWAfYaZ51uHHQLYPUiqPWw0f57y9z1q/e+5T6/uB9eAf9EdzI5+DlC2OdI1ut+1sf5RJ5UNUP);points=[[0,0.5,0],[1,0.5,0],[0.5,1,0],[0.5,0,0]];labelBackgroundColor=none;rounded=0;html=1;whiteSpace=wrap;" vertex="1" parent="aQ8phS6_Cu3jGlPXwjjR-52">
          <mxGeometry width="260" height="44" as="geometry" />
        </mxCell>
        <mxCell id="aQ8phS6_Cu3jGlPXwjjR-55" value="&lt;div style=&quot;font-size: 1px&quot;&gt;&lt;font style=&quot;font-size: 16.93px; font-family: Calibri; color: rgb(0, 0, 0); direction: ltr; letter-spacing: 0px; line-height: 120%; opacity: 1;&quot;&gt;PreguntasFrecuentes&lt;br&gt;&lt;/font&gt;&lt;/div&gt;" style="text;vsdxID=18;fillColor=none;gradientColor=none;spacingTop=3;spacingBottom=3;points=[[0,0.5,0],[1,0.5,0],[0.5,1,0],[0.5,0,0]];labelBackgroundColor=none;rounded=0;strokeColor=none;html=1;whiteSpace=wrap;verticalAlign=middle;align=left;overflow=width;;html=1;" vertex="1" parent="aQ8phS6_Cu3jGlPXwjjR-52">
          <mxGeometry y="-0.39" width="260" height="44.31" as="geometry" />
        </mxCell>
        <mxCell id="aQ8phS6_Cu3jGlPXwjjR-56" value="" style="endArrow=none;dashed=1;html=1;dashPattern=1 3;strokeWidth=2;rounded=0;exitX=-0.004;exitY=0.765;exitDx=0;exitDy=0;exitPerimeter=0;entryX=0.992;entryY=0.759;entryDx=0;entryDy=0;entryPerimeter=0;" edge="1" parent="aQ8phS6_Cu3jGlPXwjjR-52">
          <mxGeometry width="50" height="50" relative="1" as="geometry">
            <mxPoint x="1.0400000000000773" y="111.1399999999999" as="sourcePoint" />
            <mxPoint x="260" y="110.00000000000003" as="targetPoint" />
          </mxGeometry>
        </mxCell>
        <mxCell id="aQ8phS6_Cu3jGlPXwjjR-57" value="+ buscarRespuesta()" style="text;html=1;align=left;verticalAlign=middle;whiteSpace=wrap;rounded=0;" vertex="1" parent="aQ8phS6_Cu3jGlPXwjjR-52">
          <mxGeometry y="110" width="150" height="50" as="geometry" />
        </mxCell>
      </root>
    </mxGraphModel>
  </diagram>
</mxfile>
